<svg xmlns="http://www.w3.org/2000/svg" width="798.667" height="429.333" viewBox="0 0 599 322"><path d="M0 161v161h102l.2-78.7.3-78.7 64.5 78.7 64.4 78.7 3.1-2.8c1.6-1.6 19.1-17.6 38.8-35.7 22.8-20.8 35.6-33.2 35.3-34.1-.3-.8-20.2-25.1-44.3-54.1-24-29.1-51.2-61.8-60.3-72.8s-35.2-42.5-57.9-70C123.3 25 104 1.9 103.2 1.2 102 .3 90 0 50.8 0H0zm289.8-73.8c.3 95.4.5 98.8 6.2 119.1 13.9 49.6 51.2 89.9 98.4 106.6 18.7 6.6 24.8 7.5 49.6 7.5s30.9-.9 49.6-7.5c51.2-18 89.4-62.7 101.5-118.7 2.1-10.2 3.7-40.6 3.8-76.5l.1-16.7H496v33.8c0 37-.4 40.3-6 51.7-13.5 27.7-48.6 37.2-74.4 20-9.3-6.2-16.4-15.3-20.9-27.3-2.2-5.7-2.2-6.1-2.5-92.5L391.9 0H289.5z"/></svg>