<svg xmlns="http://www.w3.org/2000/svg" width="1413.333" height="1008" viewBox="0 0 1060 756"><path d="M236.5 341.2c-.4 2.4-.5 6.1-.3 8.3l.3 4 9.5.5 9.5.5.3 27c.1 14.8.4 27.5.6 28 .3.9 4.9 1.1 13.3.6l2.3-.1.2-27.8.3-27.7 9.5-.5 9.5-.5-.1-7.3c-.1-9.6 1.4-9.2-28.6-9.2h-25.7zM304.6 339.2c-1.5 5.8-.6 70.6 1 71.2 2.1.8 38.5.6 44.9-.2l5-.7.3-4.9c.2-2.7-.2-6.2-.9-7.7l-1.1-2.9-16.7-.2-16.6-.3v-11.9h8.8c10.9-.1 11.9-1 11.5-10.1l-.3-6-10.2-.3-10.3-.3V354h33l1-2.6c1.3-3.3 1.3-6.9 0-3.9-.6 1.4-.8.5-.7-3.1.1-7.8 1.3-7.4-24.7-7.4h-23.4zM368 338c-1.3.8-1.5 6.2-1.8 36.3l-.3 35.4 4.7.7c5.8.8 43.1.8 46.1 0 2.6-.7 3.4-5.7 2-12.1l-.9-4.3h-14.6c-8.1 0-15.7-.3-16.9-.6l-2.3-.6v-25.4c0-30.7.2-30-8.2-30.3-3.4 0-7 .3-7.8.9M430.7 337.7c-.4.3-.7 3-.7 6 0 2.9-.4 5.3-1 5.3-1.9 0-1.1 59.9.8 60.9s41.3 1.4 48 .5l4.2-.6v-6.4c0-5-.3-6.4-1.5-6.4-.8 0-1.5-.7-1.5-1.5 0-1.2-2.7-1.5-16.2-1.7l-16.3-.3v-11l8.2-.3c10-.3 11.6-1.9 11.1-11l-.3-5.7-9.8-.3-9.8-.3.4-5.2.4-5.2 16.2-.3 16.1-.2v-6c0-3.2-.4-7-1-8.4l-1-2.6h-22.8c-12.6 0-23.2.3-23.5.7M494.5 338.1c-.3.8-.4 17.4-.3 36.9l.3 35.5 3 .3c1.6.2 5.3.1 8.2-.3l5.3-.6v-28l11.8.3 11.7.3.3 13c.3 15 0 14.4 8.1 15.1 10.9.8 10.2 3.3 10.1-34.6-.2-38.8-.2-39-7.8-39-7.8 0-10 3.8-10.4 18l-.3 9.5-11.7.3-11.6.3-.4-13c-.2-7.1-.6-13.3-1-13.7-1.5-1.5-14.7-1.7-15.3-.3M569.1 340c-.5 1.6-1.5 3-2 3-2 0-1.4 64.5.6 66.1 2.7 2.3 49.3 2 51.6-.3 1.3-1.2 1.4-1.8.4-2.2-.9-.5-.9-.7.1-1.2 1.4-.7 1.6-6.4.2-6.4-.6 0-1.6-1.1-2.2-2.5l-1.1-2.5H586v-12h15.9l1.6-3.4c1-2.1 1.5-5.2 1.3-8.2l-.3-4.9-9.5-.5c-6.7-.4-9.5-.9-9.4-1.8.1-.6.2-3 .3-5.2l.1-4h32v-5.9c0-3.3-.4-7.1-1-8.5l-1-2.6h-45.8zM654.8 337.7c-1.1.3-2 1.9-2.4 4.1-.4 2-1.3 4.9-2 6.4-.8 1.5-1.4 3.8-1.4 5.2 0 1.5-.8 3-2 3.6-1.4.7-2 2.1-2 4.3 0 4.9-1 7.5-3.1 8-1.5.4-1.9 1.4-1.9 4.6 0 2.3-.4 4.1-1 4.1-.5 0-1.3 1.9-1.6 4.2-.4 2.2-1.5 4.9-2.6 6-1 1-1.8 3.2-1.8 5.3 0 2-.7 4.1-1.9 5.2-2.2 2.2-3.5 9.1-1.9 11 1.2 1.4 5 1.6 12.2.7l4.6-.7v-4.3c0-3.4.4-4.4 1.6-4.4.9 0 2.1-1.4 2.7-3l1.1-3h10.3c9.3 0 10.2.2 10.8 2 .3 1.1 1.5 2.4 2.5 3 1.1.6 2 2.6 2.4 5.5.4 2.5 1.3 4.6 1.9 4.6 11.2 1.1 16.7.2 16.7-2.6 0-.8-.4-1.5-1-1.5-.5 0-1-1-1-2.3 0-1.2-.7-3.5-1.5-5s-1.7-4.5-2-6.5c-1.1-5.9-1.6-7.2-2.9-7.2-.9 0-1.5-1.8-1.8-4.8-.3-3.2-1.2-5.6-2.6-7-1.2-1.2-2.2-3.3-2.2-4.7s-.4-3.3-1-4.3c-.5-.9-1.4-3.6-2-6-.6-2.3-1.5-4.2-2-4.2s-1.3-1.8-1.6-4c-.4-2.5-1.3-4.1-2.4-4.5-1-.3-2.1-2-2.4-3.9-.8-4.2-7.2-5.9-14.8-3.9m9.3 32.6c.6 6.6.1 7.7-3.2 7.7-2.6 0-2.9-.3-2.9-3.4 0-8.7 5.5-12.5 6.1-4.3M708.7 337.7c-.4.3-.7 1.5-.7 2.5s-.7 1.8-1.5 1.8c-1.3 0-1.5 4.4-1.5 33.5v33.4l3.8 1.1c2.3.7 11.7 1 25.7.8l22-.3.3-6c.5-10.9 1-10.6-16.4-10.8l-14.9-.2-.3-24.3c-.1-13.5-.6-24.2-1.1-24.2s-1.3-1.5-1.6-3.3c-.4-1.7-1.3-3.5-1.9-3.9-1.4-1-11-1-11.9-.1M752.1 337.9c-1.1.7-1.5 3.1-1.5 8.3l-.1 7.3 10.5.6c5.8.4 10.5.7 10.5.8 0 0-.1 12.2-.3 27-.4 32.1-1.9 29.2 15 28.2l2.8-.1.2-27.8.3-27.7 9-.5 9-.5V346q0-7.5-1.2-7.5c-.6 0-1.5-.3-1.9-.8-1.1-1-50.6-.8-52.3.2M819.4 341.7c-.5 3.5-.9 4.3-1.4 2.8-1.3-3.8-2 9.4-2 36.5.1 31.1-.4 29.4 9.9 29.5 9.4 0 10.1-.5 10.1-6.2 0-2.6-.4-5.5-1-6.3-.5-.8-.5-1.9 0-2.5s1-3.8 1.2-7l.3-6h23l.3 13.7.3 13.6 4.7.5c2.6.3 6.3.4 8.2.4l3.5-.2.3-32.5c.4-45 1.1-42.7-13-40.4l-3.8.7V365h-24v-10.6c0-13.9-2.1-17.4-10.6-17.4h-5.3z"/></svg>