<svg xmlns="http://www.w3.org/2000/svg" width="3200" height="3200" viewBox="0 0 2400 2400"><path d="M1612.3 338.1c-6.4 1.3-6.4 1.3-22.7 27.9-4.2 6.9-11.5 18.6-16.2 26s-10.4 16.4-12.5 20c-2.2 3.6-5.2 8.4-6.7 10.7-1.5 2.4-4.9 8-7.6 12.5-5 8.3-10 16.2-13.3 20.8-1 1.3-3.6 5.6-5.9 9.5-6.2 10.6-10.3 17.3-14.9 24.5-2.4 3.6-7 11-10.3 16.5-3.2 5.5-8.7 14.3-12.1 19.5-7 10.8-7.7 14.4-3.3 16.1 1.8.8 37.7 1.3 114.9 1.7l112.2.5 3.8-4c3.9-4.2 7.2-8.9 14.4-20.8 2.4-3.9 6.3-10.2 8.8-14.2 2.5-3.9 7.3-11.5 10.6-16.8s8.7-14 12.1-19.3c7-11.1 15.2-24.6 18.9-31.2 1.4-2.5 3.9-6.5 5.5-9s4.9-7.8 7.2-11.9c2.4-4 6.8-11.2 9.9-16 3.1-4.7 8.9-14.2 12.9-21.1s8-13.6 9-15c.9-1.4 2.5-4.1 3.5-6 .9-1.9 3.5-5.9 5.7-8.8 4.3-5.8 4.6-9.2.9-11.2-2-1-219.7-2-224.8-.9M992 640.1c-3.6.4-11.1.7-16.7.8-9.8.1-42 2.8-43.3 3.6-.3.2-8.7 1.3-18.5 2.5-9.9 1.1-22.5 3.2-28 4.5-5.5 1.4-11.1 2.5-12.6 2.5-1.4 0-7.9 1.3-14.5 3-6.5 1.6-12.8 3-13.9 3s-5.6 1.2-10 2.6c-4.4 1.3-9.8 2.9-12 3.3-10.8 2.3-42.5 12.6-59 19.1-4.4 1.8-10.2 4-13 5-2.7 1-8.6 3.5-13 5.5s-11.7 5.3-16.3 7.3c-19.7 8.7-48.5 23.6-63.2 32.7-5.2 3.2-11.9 7.1-14.9 8.7-2.9 1.6-8.8 5.2-13 8s-8.7 5.9-10.1 6.8c-22 14.7-39.5 27.7-58.8 44-6.2 5.2-13 10.8-15 12.3-2 1.6-3.8 3.2-4 3.7s-3.8 3.8-8 7.3c-15.5 12.9-55.1 54.4-66.7 69.8-1.1 1.5-6.3 8-11.5 14.5-11.3 14.1-22.8 29.1-25.2 33.1-1 1.5-3 4.7-4.5 7-1.6 2.3-4.6 6.9-6.8 10.2-12.8 19.4-18.5 28.4-18.5 29.3 0 .5-1.3 2.8-2.9 5.1-15 21.2-55.2 111.7-60.7 136.5-.8 3.5-2.3 8-3.3 10-1 2.1-2.4 6.2-3.1 9.2-.6 3-2.3 9.5-3.6 14.5-6.3 23.9-8.4 32.7-9.8 41-.8 4.9-2.4 13.3-3.5 18.5-1.2 5.2-2.1 11.3-2.1 13.5s-1.1 9.9-2.4 17c-2.7 14.5-3.9 23.9-4.3 33.5-.9 22.8-1.2 29-2.3 42.4-1.3 14.9-1.1 24.8.9 62.1 1.7 29.9 3 44.2 5.1 55 1 5.5 2.4 14.9 3 21 .6 6 1.6 12.8 2.2 15 .5 2.2 1.9 8.3 2.9 13.5 1.1 5.2 2.8 12.6 3.9 16.5 1 3.8 2.6 10.6 3.4 15 1.5 7.2 5.8 22.1 10 34.5.8 2.5 3.4 10.6 5.7 18 4 13 6.7 20.3 12.9 35.5 1.6 3.8 3.9 9.7 5.1 13 1.3 3.3 7.3 16.1 13.4 28.5 6.2 12.4 11.8 24.1 12.5 26s1.9 4.2 2.6 5c.6.8 2.4 3.7 3.8 6.5 1.4 2.7 3.9 7.2 5.6 10 1.6 2.7 4 7.1 5.4 9.6 6.1 11.2 26.3 42 36.5 55.5 7.2 9.6 10.1 13.4 14.9 19.9 6.2 8.4 29.1 35.6 36.7 43.5 3.9 4.1 10.9 11.5 15.6 16.4 20.2 21.3 62 58.3 80.3 71.1 3.9 2.7 9.8 7 13.1 9.5s13 9.1 21.5 14.6c8.5 5.6 19.4 12.6 24.2 15.7 4.8 3.2 9.1 5.7 9.6 5.7s2.8 1.3 5.3 2.8c14.4 9.2 33.9 19.3 68.9 35.5 5.9 2.8 28 11.7 37.5 15.2 5 1.8 12.8 4.8 17.5 6.5 4.7 1.8 11.3 3.8 14.7 4.6s8.6 2.3 11.4 3.4c2.9 1.2 8.2 2.7 11.8 3.5s10.2 2.6 14.6 4 8.9 2.5 9.9 2.5c1.1 0 7.4 1.3 14 2.9 19.4 4.7 43 8.9 59.1 10.6 8.3.9 18.6 2.4 23 3.3 12.4 2.6 136.7 2.6 149.8-.1 4.9-1 15.2-2.4 23-3.2s17.6-2.1 21.7-3c4.1-.8 11.6-2.2 16.5-3 11.6-1.9 33.9-7 43.5-10 4.1-1.2 11.1-3.1 15.5-4 4.4-1 9.2-2.3 10.6-3.1 1.4-.7 5.2-1.9 8.5-2.8 3.2-.8 10.4-3.1 15.9-5.1s13.4-4.7 17.5-6c7.1-2.3 12.6-4.5 40.5-16.5 24.1-10.4 56.5-27.3 81.3-42.4 4.6-2.8 9.8-6 11.5-7 12.5-7.5 53.3-36.5 62.7-44.5 9.9-8.6 23.7-20.2 28.6-24.1 6.5-5.2 33.6-30.9 36-34.2 1.2-1.6 6.6-7.4 12-13.1 5.5-5.6 11.7-12.5 13.9-15.3 2.2-2.9 8.5-10.5 14-17 16.8-20 26.5-33.1 26.5-35.8 0-4.7 7.4-4.5-184.3-5-122.9-.4-180.4-.9-181.7-1.6-4.8-2.6-3.1-6.1 18.3-38.1 16.4-24.6 20.8-30.5 23.2-31.3 2-.7 64-1.2 189.7-1.6l186.7-.5 3.1-3c3.7-3.5 14.4-19 29.5-42.6 3.2-5.2 9.7-15.3 14.4-22.4 4.6-7.2 9.9-15.3 11.6-18 1.8-2.8 5.7-8.8 8.7-13.5 3.1-4.7 6.4-9.9 7.4-11.6 1.9-3.1 4.9-7.8 16.5-25.7 3.6-5.6 8.2-12.9 10.1-16.2s6.1-10 9.4-14.8c3.2-4.9 7.4-11.4 9.2-14.4 1.8-3.1 5.2-8.6 7.6-12.2 4.7-7.2 5.3-8.2 14-22.8 3.2-5.4 6.7-10.7 7.7-11.8s3.1-4.9 4.8-8.4c3.8-8.2 3.2-9.7-4.5-10.6-12.1-1.6-578.3.2-580.7 1.8-1.2.8-5.2 4.1-8.8 7.3-29.2 26-48.2 39.1-78.4 54.2-22.3 11.2-27.3 13.3-44.5 19-4.1 1.3-9.5 3.2-12 4.2s-7.4 2.4-11 3c-3.6.7-10.1 2.3-14.5 3.7-4.4 1.3-11.8 2.9-16.5 3.4s-11.9 1.5-16 2.3c-21.2 4.1-65.9 4.1-90 .1-4.7-.8-13.6-2.1-19.9-3s-12.2-2-13.2-2.6c-1-.5-6.6-2-12.4-3.4s-11.3-3-12.3-3.5c-.9-.6-4.8-1.9-8.7-2.9-3.8-1-10.8-3.5-15.5-5.6-4.7-2-11.2-4.8-14.5-6.1-3.3-1.2-9.1-4-13-6-3.8-2-9.6-5-12.8-6.6-50.1-24.9-110.9-84.7-138.2-136-1.1-2.1-4.1-7.5-6.6-12-2.5-4.6-4.9-9.4-5.3-10.8s-2.7-6.6-5-11.5c-2.4-5-5.4-12.2-6.7-16-1.2-3.9-3.3-9.9-4.5-13.5-6.6-18.6-13.3-48.3-15.4-68-1.6-15.7-3.1-41.7-2.5-45.6.3-2.1 1-11.6 1.5-20.9.5-9.4 1.6-20.2 2.4-24 .8-3.9 2.4-12.5 3.6-19.3 6.4-37.2 23.6-79.9 48.3-120.3 13.5-22 41.4-54.9 60.5-71.3 17.1-14.7 29.5-24.6 30.7-24.6.7 0 3.2-1.4 5.6-3.2 15-11 63.4-37.8 68.1-37.8.8 0 4.9-1.5 9.3-3.4 4.4-1.8 12.5-4.5 18-6.1 5.5-1.5 13.4-3.8 17.5-5 4.1-1.3 9.8-2.6 12.5-3 2.8-.3 10.4-1.7 17-3 22.8-4.6 21.7-4.6 469-4.5 279.5 0 427.2-.3 429.4-1 4.9-1.4 8.4-5.2 14.7-15.5 3-5 8.7-14 12.6-20 3.9-6.1 8.5-13.6 10.2-16.8 1.7-3.1 5.6-9.4 8.7-14 7.7-11.3 17.1-26.5 18.6-30 .7-1.6 2.3-4.2 3.5-5.7 2.3-2.9 5.2-7.5 16.2-26 6.1-10.1 17.3-28.7 34.5-56.9 8.6-14.1 9.5-17.2 5.9-19.3-2.4-1.4-925.9-2-939.8-.7m-559.9 672.7c.6 3.1 1.6 6.5 2.1 7.6 1.2 2.3 4.1 14.5 5.7 24 .7 3.8 1.8 8.4 2.5 10.1.8 1.8 2.1 6.4 3 10.2.9 3.9 2.4 9.1 3.5 11.6s2.4 7 3 9.9c.9 5.1 4.9 16.8 14.6 42.8 2.6 6.9 5.1 14.1 5.7 16 .5 1.9 1.9 4.9 2.9 6.7 1.1 1.7 2.7 5.5 3.5 8.5.9 2.9 2.4 6.7 3.5 8.4 1 1.7 2.6 5 3.4 7.3s2.4 5.5 3.5 7.1c1.1 1.5 2 3.5 2 4.2 0 1.3 4.6 11.5 10.1 22.3 10.6 20.7 18.8 35.9 21.9 40.5 2 3 4.7 7.5 5.9 9.9 2.6 4.9 15.7 25.9 19.6 31.1 1.4 1.9 4.8 6.9 7.5 11 5.9 9 15.5 22.5 20.2 28.3 1.9 2.3 5.1 6.7 7.3 9.7 2.1 3 6.6 8.7 9.9 12.6 3.4 3.9 8.4 10 11.1 13.4 6.6 8.3 21.6 25 22.5 25 .4 0 1.9 1.7 3.3 3.7 4.2 6.4 49.6 51 57.1 56.3 1.1.8 7.2 6.1 13.5 11.7 6.2 5.7 13.1 11.3 15.2 12.5 2.2 1.2 3.9 2.5 3.9 2.9s2.9 2.8 6.5 5.4c3.6 2.5 9.3 7 12.8 9.9 3.4 2.9 7.2 5.8 8.5 6.5 1.2.7 12.1 7.9 24.2 16.2 12 8.2 22.1 14.9 22.4 14.9.2 0 5.3 3.1 11.3 6.9 5.9 3.9 15.1 9.1 20.3 11.7 5.2 2.7 10.8 5.7 12.3 6.7 3.9 2.7 31.9 16.7 33.3 16.7.6 0 2.2.9 3.6 1.9 1.4 1.1 4.7 2.9 7.4 3.9 2.7 1.1 8.7 3.7 13.4 5.7 17.3 7.6 22.7 9.8 30.5 12.5 4.4 1.5 10.5 3.7 13.5 5 13.2 5.4 17.7 7 20 7 1.4 0 4.8 1.1 7.7 2.4 10.7 5 45.3 14.5 73.3 20.1 9.9 1.9 27.7 7.3 28.5 8.5.7 1.2-1.6 1.8-10.8 3-20.3 2.5-94.2 1-114.7-2.4-41.2-6.7-39.5-6.4-56.5-10.2-22.6-4.9-33.6-7.8-47.8-12.5-3.1-1-6.5-1.9-7.5-1.9-.9 0-4.2-1.2-7.2-2.6-3-1.5-9.1-3.7-13.5-4.9-4.4-1.3-11.6-3.9-16-5.8s-13.4-5.8-20-8.7c-12.5-5.5-25.5-11.8-34-16.5-2.7-1.5-9.7-5.2-15.5-8.2s-11.1-6-11.8-6.5c-.7-.6-5-3.4-9.6-6.2-19.4-11.8-46.1-30.6-56.2-39.5-2.2-2-7.6-6.4-12-9.7-16.5-12.8-49.7-45.2-64.6-62.9-3.6-4.4-10.3-12.3-14.8-17.5s-9.2-10.9-10.4-12.6c-1.1-1.8-4.3-6-6.9-9.5-11.3-15.1-20.7-29-30.3-44.9-12.4-20.6-15.5-26-16.6-29.2-.6-1.8-2.4-5.3-4-7.7-1.5-2.5-2.8-5-2.8-5.6s-1.3-3.2-2.9-5.7-4.6-8.8-6.6-13.9c-2-5.2-4.7-11.2-6-13.4-1.2-2.2-2.6-5.6-3-7.5s-1.8-5.6-3.1-8.3c-4.6-9-22.2-63.6-23.3-72.2-.5-3.3-2-10.5-3.5-16s-3.4-14.3-4.1-19.5-2-12.7-2.8-16.5c-2-9-6.1-49.8-5.4-53.2.3-1.5-.2-7-1-12.2-2.6-17.2-.8-65.6 2.8-72.3 1.6-3 3.6-.6 5 6"/><path d="M1222.5 975c-37.3.4-45.4.8-47.2 2-1.2.8-4.8 6.6-8 13-3.1 6.3-6.8 13.3-8.2 15.5s-7.4 13.8-13.4 25.9c-5.9 12-12.7 25.3-15.1 29.5-2.3 4.2-4.7 8.5-5.3 9.6-6 10.9-14.3 29-13.9 30.1 1.3 3.3 6.6 3.4 164.1 4.2 117.8.5 158.7 1 159.6 1.9 1.5 1.5-.1 6.4-4 12.4-1.5 2.4-6.4 10.2-10.8 17.4-4.4 7.1-10.2 16.5-12.9 20.8s-7.4 12-10.4 17c-3 5.1-8 13-11 17.6-5.2 8-8 12.4-23.9 37.8-4 6.5-9.9 15.7-13 20.5s-8.1 12.6-11.1 17.4c-3 4.9-9.5 15-14.5 22.5-12.9 19.8-18.4 28.2-23.6 36.8-2.6 4.2-9.4 14.8-15.3 23.6-11.2 16.8-12.8 21-8.3 21.9 6.4 1.3 57.2 1.6 302.7 1.6h268.3l3.1-2.4c1.7-1.3 4.2-4.2 5.6-6.6 1.4-2.3 4.2-6.5 6.3-9.3 2-2.8 3.7-5.7 3.7-6.3s2.1-4 4.8-7.5c2.6-3.5 7-10.5 9.9-15.4 5.6-9.8 14.4-23.5 19.3-30.1 1.6-2.3 3-4.5 3-4.9 0-.5 1.6-3.4 3.6-6.4 2-3.1 7.2-11.5 11.7-18.6 4.5-7.2 11.8-18.6 16.2-25.5 9.6-14.7 18-28.2 21.5-34.4 1.4-2.4 4.7-7.9 7.4-12.2 2.7-4.4 7-11.3 9.5-15.4s6.8-10.9 9.4-15c8.2-12.7 17.7-28.1 23-37 2.8-4.7 6.1-9.9 7.4-11.6 1.2-1.7 2.3-3.6 2.3-4.1 0-.6 2-3.8 4.5-7 2.4-3.3 6-8.6 7.8-11.9 1.9-3.2 6.5-10.9 10.2-16.9 3.7-6.1 7.7-12.6 8.9-14.5 1.2-2 2.9-4.7 3.9-6 1-1.4 4.7-7.2 8.1-13 3.5-5.8 8-13 9.9-16 2-3 5.3-8.7 7.5-12.5 3.6-6.5 5.5-9.6 15.4-24.9 4.3-6.6 4.7-9.5 1.8-12.1-1.9-1.7-19.2-1.8-413.7-1.9-226.5-.1-432 .1-456.8.4"/></svg>