<svg xmlns="http://www.w3.org/2000/svg" width="5333.333" height="5333.333" viewBox="-1185 -1185 6370 6370"><path d="M1906.5 3c-93.3 3.7-186.5 13.4-269.2 28.1C909.7 160.1 210.8 773.9 73.5 1404.4c-7.1 32.5-18.1 97.4-35.4 208.6-24 153.5-29.2 195-35.8 282-2.7 34.9-2.7 207.9 0 243.5 34.9 470.5 230 890.4 569.8 1226 572.3 565.3 1418.1 740.1 2154.8 445.5 617.6-247 1136.5-899.4 1229.5-1546 18.6-129.5 19.2-210.9 2.5-384.3-4.4-46.3-8.4-84.6-8.9-85.1-2.4-2.4-57.1 63.8-70.2 85-27.9 45.1-39.8 95.4-52.3 221.2-65.1 655-400.4 1185.2-939 1484.9-716.4 398.6-1580.4 273.4-2177.9-315.7-596.3-587.9-732.3-1358-371.9-2105C700.2 415.8 1534.7 14.7 2368 189.6c336.2 70.6 640.1 229.4 909 474.9 118.9 108.6 158.3 130.2 228.7 125.6 76.9-5 64.1-33.1-88.8-194.6C3083 242.8 2603.6 32.1 2071.5 4c-26-1.4-138-2.1-165-1"/><path d="M1164 745.4c-2 2.5-.8 135.6 1.4 146.6 6.5 33.2 17.3 38.3 114.5 54 16.8 2.7 36.2 6.1 43.1 7.5 93.8 19.7 109.7 76.7 117.2 420 1.1 53 2.4 1618.8 1.3 1623.2-.9 3.6-63.2 44.8-80 52.9-36.3 17.5-84.9 29.4-120 29.4-60.6.1-73.8 8-77.5 46.5-1.5 16.2-1.4 127.7.2 129.3 1.5 1.5 1064.4 1.7 1066.8.2 1.3-.8 1.5-9.3 1.4-66.7-.1-118.3 1-116.4-70.4-118.3-52.4-1.4-88.2-6.2-128.1-17-14.2-3.8-76-26-78.6-28.2-1.1-.9-1.3-83.7-1.1-455.2.3-454.1.3-454.1 48.3-453.9 264 1.2 347.5 6.5 428.3 27.3 101.7 26.3 146.6 70.2 150.3 147 2 42.6 7.3 51.4 34.3 56.6 10.5 2.1 100 3.3 103.5 1.5 2.3-1.3 3.4-668.4 1.1-672.1-1.5-2.3-86.5-2.1-99.8.3-30.9 5.6-37.2 14.1-39.1 52.2-5.5 110.4-83.3 148.5-315.6 154.5-40.4 1-307.4 1.4-309.9.4-3-1.2-2.3-883.2.7-884.2 2.1-.7 47.1-.5 281.7 1.7 63 .6 175.5 1.5 250 2.1s142.9 1.3 151.9 1.6c17.8.7 15-1.6 89.2 74.9 49 50.6 89.6 113.4 109.4 169 22 61.7 34.6 73.7 80 76.5 20.9 1.3 75.6 1.3 78.9 0 2.9-1.1 4.3-576.9 1.4-579.8-2-2-1833.1-1.7-1834.8.2m2628.5 133c-39.9 13-213.2 138.4-327 236.5-101.6 87.6-177.6 166.8-185.1 193-.9 3.1-2.1 7.4-2.7 9.6-2.7 9.3-21.6 34.4-43.8 58-100.3 107.1-150 295.7-160.9 611-12.3 355.7 10 391.9 87.5 142 71.4-230.2 185.3-476.5 277.5-600.5 37.2-50 77.1-79.5 71.5-52.9-15.4 72.8-164.8 467.5-264.8 699.4-17.3 40.2-32.6 82.1-54.2 148-80.5 245.8-201.9 438.6-488.6 775.5-61.7 72.6-58.8 69-53.5 67.6 2.6-.6 71.9-37.3 88.6-46.9 205.5-117.6 422.3-396.9 527.7-679.7 33.1-88.7 88.3-167.4 206.3-294 31.2-33.5 41.1-44.5 59.1-65.6 195.2-227.8 283.5-468.9 302.9-827.4 2.8-51.7 3.2-71.2 3.7-175.6.5-114.7.1-136.5-3.3-160.9-4.7-33.9-16.9-45-40.9-37.1m-3000.1 4.4c-32.4 11.5-41.2 34.2-28 71.7 10.9 31 12.9 37.2 16.1 49.8 41 160.7-18.7 360-155.6 519.2-71.4 83-78.5 106.8-42.3 142.2 15.3 14.9 23.4 19.2 37.4 20 90.6 5.4 255.2-241.4 288.5-432.5 27.1-155.9-47.8-394.8-116.1-370.4"/><path d="M645 1041.7c-46.1 4.5-81.6 26.5-114.2 70.6-41.8 56.6-16.7 73.3 109.7 73.1 98-.1 102.9-2.9 103-59.4 0-27.7-1.1-33.1-9.2-46.9-15-25.3-52.6-41.1-89.3-37.4M568.5 1345c-86 5.4-162.9 21.1-178.8 36.5-5 4.8-17.1 40-16.5 48 .6 7.5 28.8 10.6 111.8 12.1 141.3 2.6 185.6-14.7 188.7-73.8.8-15.9-1.1-17.6-24.7-21.4-11.4-1.9-59.4-2.7-80.5-1.4m-216.4 220.1c-20.2 10.2-31.7 37-26.7 62 10 49.3 62.1 114.3 203.6 254 141.2 139.3 206.7 221.4 256.9 321.7 103.2 206.4 65.8 390.7-127.9 629.7-71.4 88-75.5 102-44.3 149.3 37 56.1 60.2 41.9 183.8-111.8 246.5-306.6 243.8-595.4-8.5-912-63.4-79.5-121.8-139.4-265.5-272-117.6-108.6-150.3-131.6-171.4-120.9"/><path d="M330.4 1821c-15.9 6.3-19.9 18.3-24.9 75.3-3.2 36.4-5 199.5-2.2 202.3 2.6 2.7 79.6-126.2 92.2-154.4 17.9-40.3 18.9-64.3 3.5-86.6-20.7-30-48.2-44.7-68.6-36.6m150.1 264.6c-87.3 5.4-130.3 23.2-139 57.6-12.1 47.4.5 58.3 74 63.9 25.8 2 324.3 2.5 325.1.5.5-1.4-19.2-47.2-25.8-59.7-20.3-38.8-132.4-68.6-234.3-62.3M398 2351.7c-45.5 4.3-50.5 10.1-44.1 50.9 7.7 49.7 18.7 52.2 260.1 58.9 159.3 4.4 175.6 1.4 173.7-31.9-3.2-54.1-15.9-64-89.7-70-62.8-5.1-272-10.6-300-7.9m114.2 277.4c-62.6 2.9-70.2 8.9-57.6 45.4 3.6 10.4 7.6 23.5 8.9 29 1.9 7.5 3.1 10.5 4.9 12.2 15.5 13.5 146.1 5.6 202.9-12.3 26.6-8.4 51.7-38.3 44.9-53.7-8-17.9-88.4-26.1-204-20.6"/></svg>