<svg xmlns="http://www.w3.org/2000/svg" width="122" height="51" fill="none" viewBox="0 0 122 51"><g fill="#0f0a07" clip-path="url(#a)"><path d="M11.49 45.342a.3.3 0 0 1-.255.37l-1.46.167v-.035q0-.458-.272-.68a.93.93 0 0 0-.6-.224q-.425 0-.829.315t-.649.96-.244 1.259q0 .466.25.781.252.315.733.315.442 0 .746-.282.248-.231.446-.663a.296.296 0 0 1 .315-.17l1.223.19a.3.3 0 0 1 .227.415 3.3 3.3 0 0 1-.96 1.276Q9.353 50 8.06 50c-.864 0-1.587-.241-2.062-.724q-.713-.723-.713-1.926 0-.92.423-1.85a3.37 3.37 0 0 1 1.237-1.46q.81-.53 1.948-.53c.757 0 1.406.198 1.86.595q.563.489.734 1.236zm6.258 3.378-.195.936a.3.3 0 0 1-.29.237h-4.421a.298.298 0 0 1-.29-.36l1.196-5.678a.3.3 0 0 1 .29-.237h1.337c.188 0 .33.176.29.362L14.807 48c-.04.185.101.36.29.36h2.36c.19 0 .33.175.29.36m5.097-5.208q1.425 0 2.093.768t.667 1.89q0 .432-.123.987-.122.555-.476 1.147t-.917 1.006-1.083.552q-.52.139-1.101.14-1.336 0-2.085-.681-.75-.68-.749-1.91a4.27 4.27 0 0 1 .738-2.402q.369-.541.907-.907a3 3 0 0 1 1.059-.477 5 5 0 0 1 1.07-.112zm-.822 5.059q.558 0 .947-.424.39-.424.568-1.068t.178-.917q0-.604-.304-.912a1.05 1.05 0 0 0-.777-.309q-.527 0-.908.387-.38.387-.572 1.032-.191.644-.191 1.097 0 .48.28.797.28.316.779.317m11.658-4.952c.188 0 .329.176.29.361l-.731 3.423q-.286 1.327-1.017 1.962-.732.636-2.174.636-.8 0-1.279-.159a2.1 2.1 0 0 1-.806-.475 1.9 1.9 0 0 1-.477-.721 2.5 2.5 0 0 1-.148-.867q0-.587.115-1.121l.592-2.803a.3.3 0 0 1 .29-.237h1.33c.188 0 .329.175.29.36l-.673 3.17q-.051.249-.051.527 0 .745.876.745.465 0 .79-.282.324-.283.495-1.096l.66-3.186a.3.3 0 0 1 .291-.238h1.335zm2.416.237a.3.3 0 0 1 .29-.238h2.32q1.365 0 1.99.728.625.729.625 1.9a4.1 4.1 0 0 1-.535 2.081q-.535.955-1.269 1.26-.732.306-1.395.306h-2.919a.298.298 0 0 1-.29-.36zm1.046 4.291a.298.298 0 0 0 .29.36h.431q.791 0 1.179-.823a3.8 3.8 0 0 0 .387-1.639q0-.483-.223-.764-.224-.28-.802-.28h-.371a.3.3 0 0 0-.29.237zm14.015-4.167-.16.75a.3.3 0 0 1-.29.238h-2.684a.3.3 0 0 0-.29.236l-.084.4a.298.298 0 0 0 .29.36h2.315c.19 0 .331.177.29.364l-.148.674a.3.3 0 0 1-.29.233h-2.568a.3.3 0 0 0-.29.236l-.136.63a.298.298 0 0 0 .29.362H50.1c.19 0 .33.176.29.362l-.177.832a.3.3 0 0 1-.29.237h-4.75a.298.298 0 0 1-.29-.361l1.205-5.678a.3.3 0 0 1 .29-.236h4.49c.189 0 .33.175.29.36zm2.049-.125a.3.3 0 0 1 .29-.237h3.307q.919 0 1.345.484.425.483.425 1.164 0 .736-.45 1.287-.338.41-.978.601a.297.297 0 0 0-.15.457q.417.588.93 1.873a.3.3 0 0 1-.275.41h-1.4a.3.3 0 0 1-.276-.191q-.23-.601-.53-1.296-.346-.807-.52-.935a.7.7 0 0 0-.42-.129H54.4l-.483 2.314a.3.3 0 0 1-.29.238H52.3a.298.298 0 0 1-.29-.36l1.196-5.678zm1.52 1.954a.298.298 0 0 0 .29.36q.92 0 1.19-.086a.7.7 0 0 0 .402-.289.7.7 0 0 0 .132-.392.47.47 0 0 0-.157-.376q-.157-.138-.685-.137h-.738c-.14 0-.261.1-.29.237zm6.09-1.955a.296.296 0 0 1 .29-.235H63.7q.8 0 1.206.19.405.192.62.566.212.375.212.918 0 .707-.381 1.256a2.16 2.16 0 0 1-.957.79q-.577.24-1.598.239h-.614a.3.3 0 0 0-.29.237l-.386 1.84a.3.3 0 0 1-.29.238h-1.336a.298.298 0 0 1-.29-.362zm1.483 2.12c-.04.186.1.363.29.363h.281q.455 0 .746-.27a.85.85 0 0 0 .292-.642q0-.566-.609-.566h-.518c-.14 0-.26.098-.29.235zM28.34 16.21 14.838 40.413a1.03 1.03 0 0 1-.902.532H6.664c-.496 0-.923-.355-1.016-.846l-4.629-24.2a1.04 1.04 0 0 1 1.016-1.238h5.853c.521 0 .962.391 1.027.912l2.22 17.807h.072l8.962-18.14c.175-.354.534-.578.927-.578h6.34c.792 0 1.291.857.903 1.551zm14.635 24.735h-5.747a1.04 1.04 0 0 1-1.032-.955l-.198-2.394a1.04 1.04 0 0 0-1.032-.954h-6.912c-.4 0-.763.23-.935.595l-1.47 3.113a1.03 1.03 0 0 1-.935.595h-6.268c-.793 0-1.291-.859-.902-1.554l13.586-24.2c.184-.328.529-.53.902-.53h7.12c.509 0 .942.372 1.021.878l3.824 24.201a1.04 1.04 0 0 1-1.022 1.205m-8.7-9.88a1.04 1.04 0 0 0 1.033-1.129l-.707-8.444h-.072l-3.793 8.088c-.324.69.177 1.486.936 1.486h2.605zm33.28 4.715-.903 4.336c-.1.482-.523.827-1.013.827H46.694a1.04 1.04 0 0 1-1.013-1.257l5.103-24.202a1.04 1.04 0 0 1 1.013-.825h6.024c.66 0 1.15.612 1.012 1.26l-3.704 17.345a1.04 1.04 0 0 0 1.013 1.26h10.4a1.04 1.04 0 0 1 1.013 1.256m28.009-21.12c.66 0 1.15.612 1.012 1.26L93.46 30.51q-1.195 5.557-4.259 8.22-3.065 2.662-9.106 2.662-3.35 0-5.356-.664-2.004-.663-3.377-1.99-1.372-1.328-1.995-3.021a10.4 10.4 0 0 1-.624-3.63q0-2.457.48-4.698l2.517-11.905a1.036 1.036 0 0 1 1.013-.825h5.99c.66 0 1.15.611 1.013 1.259l-2.87 13.533a11 11 0 0 0-.213 2.204q0 3.12 3.67 3.12 1.944 0 3.307-1.183 1.362-1.185 2.076-4.59l2.804-13.515c.1-.482.523-.828 1.013-.828h6.021zm24.295 1.258-.754 3.565a1.036 1.036 0 0 1-1.012.825h-11.581c-.489 0-.912.345-1.013.826l-.438 2.095a1.04 1.04 0 0 0 1.013 1.256h10.212a1.04 1.04 0 0 1 1.01 1.268l-.716 3.241a1.036 1.036 0 0 1-1.01.815h-11.094c-.488 0-.909.343-1.012.822l-.658 3.063a1.04 1.04 0 0 0 1.012 1.262h11.816c.66 0 1.151.612 1.013 1.26l-.837 3.906c-.103.48-.524.822-1.012.822H94.477a1.04 1.04 0 0 1-1.012-1.26l5.135-24.2a1.04 1.04 0 0 1 1.013-.825h19.233c.658 0 1.149.61 1.012 1.258zM99.457 9.736l-.44 2.117a.27.27 0 0 1-.263.214h-8.171a.27.27 0 0 1-.263-.325L92.5 1.4a.27.27 0 0 1 .263-.213h2.822a.27.27 0 0 1 .262.326l-1.616 7.571a.27.27 0 0 0 .262.327h4.7a.27.27 0 0 1 .263.326zm11.497-8.55a.27.27 0 0 1 .262.326l-1.332 6.235q-.494 2.302-1.764 3.403-1.269 1.103-3.769 1.103-1.387 0-2.218-.275a3.6 3.6 0 0 1-1.397-.823 3.3 3.3 0 0 1-.826-1.252 4.3 4.3 0 0 1-.259-1.502q0-1.017.2-1.945l1.068-5.057a.27.27 0 0 1 .263-.213h2.808a.27.27 0 0 1 .262.326l-1.229 5.798a4.5 4.5 0 0 0-.089.912q0 1.292 1.52 1.292.804 0 1.369-.49.564-.49.86-1.9L107.87 1.4a.27.27 0 0 1 .263-.214zm9.791 3.037-2.59.14a.266.266 0 0 1-.278-.218q-.202-1.186-1.544-1.186-.597 0-.918.256t-.321.612q0 .26.258.494t1.225.597q1.224.476 1.992.898.768.424 1.254 1.099.488.675.488 1.685 0 .951-.528 1.77t-1.52 1.35q-.993.532-2.821.531-2.575 0-3.652-.994-1.078-.995-1.077-2.553a.27.27 0 0 1 .25-.27l2.615-.18a.27.27 0 0 1 .286.257q.054.8.437 1.16.447.42 1.237.42c.526 0 .936-.116 1.214-.35q.416-.349.416-.793a.88.88 0 0 0-.266-.616q-.266-.284-1.305-.66-2.384-.862-3.014-1.59-.631-.726-.631-1.751 0-.936.52-1.708t1.513-1.199q.991-.426 2.379-.426 4.184 0 4.636 2.912a.27.27 0 0 1-.252.31zM82.012 1.192h4.764c.657.001 1.308.066 1.935.284 1.115.388 1.665 1.134 1.671 2.313a6.5 6.5 0 0 1-.569 2.757c-.788 1.728-2.213 2.518-4.02 2.734-.826.098-1.657.04-2.486.057-.178.004-.228-.042-.185-.235q.22-.993.403-1.993c.04-.213.162-.242.344-.262 1.221-.132 1.879-.88 1.86-2.101-.008-.536-.266-.899-.768-1.068-.334-.112-.679-.14-1.03-.14q-3.75.003-7.498.002-.36 0-.283-.359c.118-.563.252-1.124.345-1.692.042-.255.154-.306.387-.305 1.71.008 3.421.004 5.131.004zm-.101 8.107-.006-.01-.009-.017-.002.001h-.003l-.004.006z"/><path d="m82.266 7.392.068-.307a.226.226 0 0 0-.22-.276c-.738.006-1.472-.002-2.2.01h-.022a1 1 0 0 1-.19-.018.42.42 0 0 1-.308-.247.5.5 0 0 1-.037-.193q0-.022.004-.045c.116-.546.223-1.1.349-1.655h-.01l.065-.309a.225.225 0 0 0-.22-.274 187 187 0 0 1-3.408-.003h-.006q-.039 0-.055.003a.3.3 0 0 0-.015.06q-.052.275-.108.548-.005.016-.008.037l-.01.052c-.074.36-.149.717-.217 1.072l-.108.543a1 1 0 0 1-.052.126.55.55 0 0 1-.37.282 1 1 0 0 1-.22.022h-.028q-.629-.01-1.26-.008h-.208q-.51.001-1.02-.005h-.013q-.04 0-.06.003l-.01.043q-.049.272-.102.543h-.004l-.01.042q-.026.156-.057.31a99 99 0 0 1-.204.944h.011l-.067.31a.225.225 0 0 0 .22.273h.18l.472.001h.291l.743.004q.256 0 .506-.008h.053a1 1 0 0 1 .177.017.45.45 0 0 1 .2.103.4.4 0 0 1 .1.142.5.5 0 0 1 .036.19l-.004.043c-.117.547-.225 1.101-.343 1.656h.005l-.064.312a.225.225 0 0 0 .22.272 226 226 0 0 1 3.441.002h.032l.008-.03.116-.587.025-.13q.115-.555.223-1.104l.088-.435a1 1 0 0 1 .045-.127.55.55 0 0 1 .344-.297.8.8 0 0 1 .23-.03h.024q.43.008.862.008h.689c.301 0 .603 0 .908.008h.025a.4.4 0 0 0 .108-.011.4.4 0 0 0 .025-.096q.041-.245.087-.49h.004a.4.4 0 0 0 .025-.096q.034-.205.073-.41.084-.396.176-.788h-.016z"/><path d="m82.03 8.713-.007-.01-.008-.017-.003.001h-.003l-.004.006z"/></g><defs><clipPath id="a"><path fill="#0f0a07" d="M1 1h120v49H1z"/></clipPath></defs></svg>