<svg xmlns="http://www.w3.org/2000/svg" width="1413.333" height="1413.333" viewBox="0 0 1060 1060"><path d="M510.3 253.2C488 275.3 470 294.8 470 296.9c0 3 57.1 59.1 60.2 59.1 2.4 0 60.8-56.2 60.8-58.5 0-3.6-57.4-61.5-61-61.5-1.6 0-7.4 5.1-19.7 17.2"/><path d="M409.7 357.1c-16.3 15.4-54.7 54.5-54.5 55.6.2.7 25.7 26.7 56.7 57.7l56.4 56.5-3.4 4.3c-6.9 8.7-51.9 52.8-54 52.8-1.3 0-20.9-18.8-57-54.8-59.2-58.8-56.9-56.7-60.2-55.6-4.3 1.4-59.7 57.6-59.7 60.6C234 537 405.5 710 408.3 710c.6 0 27.8-26.7 60.4-59.3 33.9-33.9 60.1-59.3 61.4-59.5 1.6-.3 15.1 12.7 61.5 59 32.7 32.6 60 59.4 60.7 59.6 1.4.3 171.7-169 173.6-172.6 2.3-4.2.8-6-28.3-35.1-28.6-28.5-29.5-29.3-32.6-28.6-2.4.5-15.6 13.1-58.2 55.6-38.3 38.1-55.8 54.9-57.2 54.9-2.6 0-56.6-54-56.6-56.5 0-.9 25.2-26.9 56-57.7s56-56.7 56-57.5c0-3.7-56.8-58.6-59.9-58-2.1.5-17.3 15-58 55.7-32.8 32.8-55.8 55-56.9 55s-24.2-22.4-57.4-55.5c-59.6-59.4-57.5-57.7-63.1-52.4M498.5 741.5c-15.7 15.6-28.5 29.1-28.5 29.8 0 3 57.1 58.7 60.1 58.7 3.3 0 59.9-55.2 59.9-58.3 0-3.3-56.7-58.7-60-58.7-2.5 0-7 4.1-31.5 28.5"/></svg>